<mxfile host="app.diagrams.net" modified="2022-02-27T03:57:32.176Z" agent="5.0 (Windows NT 10.0; Win64; x64) AppleWebKit/537.36 (KHTML, like Gecko) Chrome/98.0.4758.102 Safari/537.36 Edg/98.0.1108.62" etag="JLI7t6ylXOdrZuco8n7i" version="16.6.4" type="github">
  <diagram name="Page-1" id="90a13364-a465-7bf4-72fc-28e22215d7a0">
    <mxGraphModel dx="1497" dy="801" grid="1" gridSize="10" guides="1" tooltips="1" connect="1" arrows="1" fold="1" page="1" pageScale="1.5" pageWidth="1169" pageHeight="826" background="none" math="0" shadow="0">
      <root>
        <mxCell id="0" style=";html=1;" />
        <mxCell id="1" style=";html=1;" parent="0" />
        <mxCell id="e4oyUtV4jiV82-AvWmbW-1" value="" style="whiteSpace=wrap;html=1;shadow=1;fontSize=18;fillColor=#d5e8d4;strokeColor=#82b366;" vertex="1" parent="1">
          <mxGeometry x="180" y="444" width="360" height="280" as="geometry" />
        </mxCell>
        <mxCell id="e4oyUtV4jiV82-AvWmbW-2" value="RESTful APIs&lt;br&gt;Spring Boot" style="whiteSpace=wrap;html=1;shadow=1;fontSize=18;fillColor=#f5f5f5;strokeColor=#666666;" vertex="1" parent="1">
          <mxGeometry x="210" y="460" width="300" height="54" as="geometry" />
        </mxCell>
        <mxCell id="e4oyUtV4jiV82-AvWmbW-3" value="Pi4J Lib" style="whiteSpace=wrap;html=1;shadow=1;fontSize=18;fillColor=#f5f5f5;strokeColor=#666666;" vertex="1" parent="1">
          <mxGeometry x="210" y="550" width="300" height="54" as="geometry" />
        </mxCell>
        <mxCell id="e4oyUtV4jiV82-AvWmbW-5" value="SerialPort: Uart, Spi..." style="whiteSpace=wrap;html=1;shadow=1;fontSize=18;fillColor=#f5f5f5;strokeColor=#666666;" vertex="1" parent="1">
          <mxGeometry x="210" y="640" width="300" height="54" as="geometry" />
        </mxCell>
        <mxCell id="e4oyUtV4jiV82-AvWmbW-6" value="客户端&lt;br style=&quot;font-size: 15px;&quot;&gt;（App, WebClient...）" style="ellipse;shape=cloud;whiteSpace=wrap;html=1;fontSize=15;fillColor=#dae8fc;strokeColor=#6c8ebf;" vertex="1" parent="1">
          <mxGeometry x="180" y="310" width="350" height="80" as="geometry" />
        </mxCell>
        <mxCell id="e4oyUtV4jiV82-AvWmbW-7" value="" style="shape=flexArrow;endArrow=classic;startArrow=classic;html=1;rounded=0;fontSize=15;entryX=0.511;entryY=0.938;entryDx=0;entryDy=0;entryPerimeter=0;" edge="1" parent="1" target="e4oyUtV4jiV82-AvWmbW-6">
          <mxGeometry width="100" height="100" relative="1" as="geometry">
            <mxPoint x="360" y="440" as="sourcePoint" />
            <mxPoint x="420" y="420" as="targetPoint" />
          </mxGeometry>
        </mxCell>
        <mxCell id="e4oyUtV4jiV82-AvWmbW-8" value="" style="endArrow=classic;startArrow=classic;html=1;rounded=0;fontSize=15;entryX=0.5;entryY=1;entryDx=0;entryDy=0;exitX=0.5;exitY=0;exitDx=0;exitDy=0;" edge="1" parent="1" source="e4oyUtV4jiV82-AvWmbW-3" target="e4oyUtV4jiV82-AvWmbW-2">
          <mxGeometry width="50" height="50" relative="1" as="geometry">
            <mxPoint x="340" y="570" as="sourcePoint" />
            <mxPoint x="390" y="520" as="targetPoint" />
          </mxGeometry>
        </mxCell>
        <mxCell id="e4oyUtV4jiV82-AvWmbW-9" value="" style="endArrow=classic;startArrow=classic;html=1;rounded=0;fontSize=15;entryX=0.5;entryY=1;entryDx=0;entryDy=0;exitX=0.5;exitY=0;exitDx=0;exitDy=0;" edge="1" parent="1" source="e4oyUtV4jiV82-AvWmbW-5" target="e4oyUtV4jiV82-AvWmbW-3">
          <mxGeometry width="50" height="50" relative="1" as="geometry">
            <mxPoint x="370" y="560" as="sourcePoint" />
            <mxPoint x="370" y="524" as="targetPoint" />
          </mxGeometry>
        </mxCell>
        <mxCell id="e4oyUtV4jiV82-AvWmbW-10" value="Sensors" style="shape=cylinder3;whiteSpace=wrap;html=1;boundedLbl=1;backgroundOutline=1;size=15;fontSize=15;fillColor=#f8cecc;strokeColor=#b85450;fontStyle=3" vertex="1" parent="1">
          <mxGeometry x="180" y="770" width="60" height="80" as="geometry" />
        </mxCell>
        <mxCell id="e4oyUtV4jiV82-AvWmbW-11" value="Motors" style="shape=cylinder3;whiteSpace=wrap;html=1;boundedLbl=1;backgroundOutline=1;size=15;fontSize=15;fillColor=#f8cecc;strokeColor=#b85450;fontStyle=3" vertex="1" parent="1">
          <mxGeometry x="270" y="770" width="60" height="80" as="geometry" />
        </mxCell>
        <mxCell id="e4oyUtV4jiV82-AvWmbW-12" value="" style="endArrow=none;dashed=1;html=1;dashPattern=1 3;strokeWidth=2;rounded=0;fontSize=15;" edge="1" parent="1">
          <mxGeometry width="50" height="50" relative="1" as="geometry">
            <mxPoint x="530" y="630" as="sourcePoint" />
            <mxPoint x="580" y="580" as="targetPoint" />
          </mxGeometry>
        </mxCell>
        <mxCell id="e4oyUtV4jiV82-AvWmbW-13" value="" style="endArrow=none;dashed=1;html=1;dashPattern=1 3;strokeWidth=5;rounded=0;fontSize=15;" edge="1" parent="1">
          <mxGeometry width="50" height="50" relative="1" as="geometry">
            <mxPoint x="350" y="810" as="sourcePoint" />
            <mxPoint x="510" y="810" as="targetPoint" />
          </mxGeometry>
        </mxCell>
        <mxCell id="e4oyUtV4jiV82-AvWmbW-14" value="Bus Line" style="endArrow=classic;html=1;rounded=0;fontSize=15;strokeWidth=5;startArrow=classic;startFill=1;entryX=0.5;entryY=1;entryDx=0;entryDy=0;" edge="1" parent="1" target="e4oyUtV4jiV82-AvWmbW-1">
          <mxGeometry relative="1" as="geometry">
            <mxPoint x="360" y="790" as="sourcePoint" />
            <mxPoint x="390" y="740" as="targetPoint" />
          </mxGeometry>
        </mxCell>
      </root>
    </mxGraphModel>
  </diagram>
</mxfile>
